<svg xmlns="http://www.w3.org/2000/svg" width="45" height="43.2" viewBox="0 0 45 43.2"><defs><style>.a{fill:#18aa58;}</style></defs><path class="a" d="M13.5,1a.9.9,0,1,0,.9.9A.9.9,0,0,0,13.5,1Zm11.7.9A1.8,1.8,0,1,0,27,3.7,1.8,1.8,0,0,0,25.2,1.9ZM19.8,5.5a8.94,8.94,0,0,0-8.6,6.374,6.741,6.741,0,0,0-5.054,9.749A7.2,7.2,0,0,0,9.905,33.168c0,.078-.005.156-.005.232a7.208,7.208,0,0,0,7.2,7.2,7.1,7.1,0,0,0,4.526-1.607A5.787,5.787,0,0,0,25.65,40.6a5.879,5.879,0,0,0,5.688-4.5l.162,0A8.109,8.109,0,0,0,39.6,28a8,8,0,0,0-1.274-4.356A4.888,4.888,0,0,0,39.6,20.35a4.938,4.938,0,0,0-3.677-4.769A7.739,7.739,0,0,0,36,14.5a8.109,8.109,0,0,0-8.1-8.1,7.986,7.986,0,0,0-3.1.624A8.9,8.9,0,0,0,19.8,5.5ZM8.55,7.3A1.35,1.35,0,1,0,9.9,8.65,1.35,1.35,0,0,0,8.55,7.3ZM39.6,11.8a1.8,1.8,0,1,0,1.8,1.8A1.8,1.8,0,0,0,39.6,11.8ZM24.247,13.6a2.691,2.691,0,0,1,2.514,1.747.064.064,0,0,0,.105.026,3.615,3.615,0,0,1,2.443-.87c1.125,0,2.19.782,2.19,2.582,0,2.025-1.238,3.825-3.15,8.212a5.041,5.041,0,0,0-.45,1.8c0,.788.45,1.8,2.25,1.8a1.35,1.35,0,1,1,0,2.7c-5.513,0-5.85-2.925-5.85-3.6a5.246,5.246,0,0,1,.281-1.913c.049-.137,3.215-6.663,3.243-6.727a.889.889,0,0,0,.076-.371.9.9,0,0,0-1.724-.352s-4.091,8.936-4.256,9.315A1.576,1.576,0,1,1,19.03,26.7c.176-.406,2.5-6.39,2.5-6.4a.955.955,0,1,0-1.786-.677c-.669,1.75-3.235,8.554-3.484,9.285A2.7,2.7,0,0,1,13.7,30.7a2.881,2.881,0,0,1-.958-.144,2.754,2.754,0,0,1-1.786-3.461c.355-1.041,2.875-9.159,3.2-10.237A3.188,3.188,0,0,1,17.608,14.5c1.462,0,2.575.9,3.475.9C21.773,15.4,22.447,13.6,24.247,13.6ZM44.1,18.1a.9.9,0,1,0,.9.9A.9.9,0,0,0,44.1,18.1ZM1.8,19a1.8,1.8,0,1,0,1.8,1.8A1.8,1.8,0,0,0,1.8,19Zm40.05,3.6a1.35,1.35,0,1,0,1.35,1.35,1.35,1.35,0,0,0-1.35-1.35ZM7.2,35.2a.9.9,0,1,0,.9.9A.9.9,0,0,0,7.2,35.2Zm27,2.7A1.8,1.8,0,1,0,36,39.7,1.8,1.8,0,0,0,34.2,37.9ZM21.15,41.5a1.35,1.35,0,1,0,1.35,1.35A1.35,1.35,0,0,0,21.15,41.5Z" transform="translate(0 -1)"/></svg>