<svg xmlns="http://www.w3.org/2000/svg" viewBox="0 0 649.82 619.41"><defs><style>.cls-1{fill:#47a1ad;}</style></defs><g id="Layer_2" data-name="Layer 2"><g id="Layer_1-2" data-name="Layer 1"><path class="cls-1" d="M42.3,275.14a27.08,27.08,0,1,0,7.19,37.6A27.09,27.09,0,0,0,42.3,275.14Z"/><path class="cls-1" d="M141.21,137.69a20.56,20.56,0,1,0-28.63-5.09A20.54,20.54,0,0,0,141.21,137.69Z"/><path class="cls-1" d="M108.46,492.24a12.59,12.59,0,1,0,15,9.57A12.58,12.58,0,0,0,108.46,492.24Z"/><path class="cls-1" d="M376.48,66.31a26.86,26.86,0,1,0-36.91-9A26.85,26.85,0,0,0,376.48,66.31Z"/><path class="cls-1" d="M300.43,587.57a17.5,17.5,0,1,0,24.37,4.32A17.48,17.48,0,0,0,300.43,587.57Z"/><path class="cls-1" d="M190.94,28.46a14.4,14.4,0,1,0-17.16-11A14.39,14.39,0,0,0,190.94,28.46Z"/><path class="cls-1" d="M549.89,166.54a22.88,22.88,0,1,0,31.87,5.66A22.88,22.88,0,0,0,549.89,166.54Z"/><path class="cls-1" d="M649.51,255.51a12.66,12.66,0,1,0-9.63,15.1A12.65,12.65,0,0,0,649.51,255.51Z"/><path class="cls-1" d="M465.77,537.23a28.36,28.36,0,1,0,39.49,7A28.35,28.35,0,0,0,465.77,537.23Z"/><path class="cls-1" d="M600.75,324.76a17,17,0,1,0,20.3,12.95A17,17,0,0,0,600.75,324.76Z"/><path class="cls-1" d="M554.08,245.93a66.36,66.36,0,0,0-35.79-25.13A120.72,120.72,0,0,0,356,98.91c-45.22-28.64-104.84-29.57-151.47,3A136.2,136.2,0,0,0,154.77,166a90.29,90.29,0,0,0-39.51,15.11C75,209.22,64.6,263.69,90.44,304.82a98.38,98.38,0,0,0-15.77,126c15.8,24.21,40.5,38.73,67,43A105.41,105.41,0,0,0,307.5,557c1.83-1.28,3.24-2.9,5-4.26,26.85,23.72,67,27.46,97.69,6a78.85,78.85,0,0,0,31.29-45.94c24.09.76,48.59-5.47,69.87-20.33a115.75,115.75,0,0,0,31.44-157A66.77,66.77,0,0,0,554.08,245.93ZM385.79,439.12c-22.58-10.94-36.38-36.1-30.66-61,4.28-18.66,45.56-95,47.07-106.67,1.53-11.94-4.85-12.93-8.83-13.11-5.13-.24-9.17,2.28-14.17,9.9-4.55,6.95-55.85,110.92-60.3,119.41-8,15.19-18.06,18.89-28.23,18.4-14.82-.7-21.64-8.61-19.57-22.89,1.22-8.4,33.71-82.76,35.35-94.34,1-7.17-.44-14.75-7.56-18.36s-15.48,2-18,6.25c-3.43,5.86-49.42,127.71-54.34,136.74-8.5,15.63-17.51,20.64-31.09,21.35-32.12,1.67-56.07-24.62-45.72-57.07,4.61-14.45,35-124,50.56-151.91,10.44-18.77,39.61-33.13,59.94-24.45,10.52,4.5,25.11,11.69,29.42,13.57,9.93,4.35,20.51-7.61,24.68-11.27s8.16-7.51,13.26-9.73,13.1-3.15,19.31-2.27a24.39,24.39,0,0,1,12.23,5c4.57,3.62,7.43,6.47,11.76,10.55,6.51,6.13,11.16,2.38,14.4.48,5.61-3.3,10-6,26.66-5.76,17.16.22,36.9,6.25,41.13,35.47,4.72,32.47-52.62,116.42-48.39,155.23,3,27.34,49.14,7.86,53.18,32.82C463.13,457.85,400.2,446.09,385.79,439.12Z"/></g></g></svg>